<?xml version="1.0" encoding="UTF-8"?>
<!DOCTYPE svg PUBLIC "-//W3C//DTD SVG 1.1//EN" "http://www.w3.org/Graphics/SVG/1.1/DTD/svg11.dtd">
<svg xmlns="http://www.w3.org/2000/svg" version="1.1" width="225px" height="225px" style="shape-rendering:geometricPrecision; text-rendering:geometricPrecision; image-rendering:optimizeQuality; fill-rule:evenodd; clip-rule:evenodd" xmlns:xlink="http://www.w3.org/1999/xlink">
<g><path style="opacity:1" fill="#71cadf" d="M 97.5,-0.5 C 106.833,-0.5 116.167,-0.5 125.5,-0.5C 180.82,10.1537 213.82,43.1537 224.5,98.5C 224.5,107.5 224.5,116.5 224.5,125.5C 213.853,180.814 180.853,213.814 125.5,224.5C 116.167,224.5 106.833,224.5 97.5,224.5C 79.5707,221.464 62.9041,214.964 47.5,205C 44.7121,203.281 42.3788,201.115 40.5,198.5C 41.5676,197.566 42.901,197.232 44.5,197.5C 44.5,196.167 44.5,194.833 44.5,193.5C 48.1817,193.335 51.8484,193.501 55.5,194C 57.6254,194.816 59.4587,195.983 61,197.5C 63.0197,196.968 63.853,195.635 63.5,193.5C 58.2063,193.318 58.2063,192.818 63.5,192C 71.8581,191.546 80.1915,191.546 88.5,192C 90.4494,190.165 92.7827,188.999 95.5,188.5C 90.3189,187.372 85.3189,188.039 80.5,190.5C 79.6143,189.675 79.281,188.675 79.5,187.5C 82.1873,187.664 84.854,187.497 87.5,187C 85.1088,186.309 85.1088,185.309 87.5,184C 86.6721,183.085 85.6721,182.419 84.5,182C 80.1893,182.894 75.6893,183.394 71,183.5C 68.5,183.167 66,182.833 63.5,182.5C 68.5,181.833 73.5,181.167 78.5,180.5C 78.7093,179.914 79.0426,179.414 79.5,179C 70.1167,178.853 60.7833,178.187 51.5,177C 52.9202,175.47 53.9202,173.637 54.5,171.5C 55.4168,170.873 56.4168,170.539 57.5,170.5C 56.181,172.468 56.181,174.468 57.5,176.5C 68.1459,177.499 78.8126,177.832 89.5,177.5C 103.5,177.5 117.5,177.5 131.5,177.5C 142.505,177.667 153.505,177.5 164.5,177C 166.515,175.445 166.848,173.611 165.5,171.5C 162.916,170.607 160.249,170.274 157.5,170.5C 157.5,167.5 157.5,164.5 157.5,161.5C 158.167,161.5 158.833,161.5 159.5,161.5C 161.858,161.747 163.858,161.081 165.5,159.5C 166.496,159.586 167.329,159.252 168,158.5C 170.146,152.448 171.146,146.115 171,139.5C 171.318,137.939 172.151,136.772 173.5,136C 172.167,135.667 170.833,135.333 169.5,135C 171.795,134.016 171.461,133.183 168.5,132.5C 165.643,133.169 162.81,132.836 160,131.5C 159.833,131.167 159.667,130.833 159.5,130.5C 161.078,129.702 162.744,129.202 164.5,129C 163.565,126.619 163.232,124.119 163.5,121.5C 162.5,121.5 161.5,121.5 160.5,121.5C 160.167,121.5 159.833,121.5 159.5,121.5C 159.306,119.088 157.973,118.088 155.5,118.5C 155.333,105.496 155.5,92.4957 156,79.5C 156.739,77.7795 157.573,76.1128 158.5,74.5C 159.281,75.7366 160.281,76.7366 161.5,77.5C 164.409,74.4229 167.742,71.9229 171.5,70C 172.549,69.5078 173.549,69.6744 174.5,70.5C 175.747,68.9936 175.747,67.4936 174.5,66C 172.203,65.9822 169.869,66.1489 167.5,66.5C 167.67,65.1779 167.337,64.0113 166.5,63C 158.173,62.5003 149.84,62.3336 141.5,62.5C 141.5,61.1667 141.5,59.8333 141.5,58.5C 143.735,58.7947 145.735,58.4614 147.5,57.5C 147.5,50.1667 147.5,42.8333 147.5,35.5C 123.5,35.5 99.5,35.5 75.5,35.5C 79.3123,34.6762 83.3123,34.1762 87.5,34C 87,33.5 86.5,33 86,32.5C 82.6437,34.0368 79.4771,33.7035 76.5,31.5C 75.4763,32.8532 74.143,33.5198 72.5,33.5C 72.5,32.5 72.5,31.5 72.5,30.5C 69.5525,30.2229 66.7191,30.5562 64,31.5C 63.5034,29.1902 63.3367,26.8568 63.5,24.5C 61.4078,24.4386 59.9078,23.4386 59,21.5C 57.1917,23.3959 55.025,23.8959 52.5,23C 51.6634,21.9887 51.33,20.8221 51.5,19.5C 48.8858,19.2771 47.2191,20.4438 46.5,23C 41.6817,25.9923 37.015,29.1589 32.5,32.5C 50.4867,14.3397 72.1534,3.33972 97.5,-0.5 Z"/></g>
<g><path style="opacity:1" fill="#70cadf" d="M 75.5,35.5 C 75.5,42.8333 75.5,50.1667 75.5,57.5C 77.8333,57.5 80.1667,57.5 82.5,57.5C 82.5,59.5 82.5,61.5 82.5,63.5C 73.8269,63.3336 65.1603,63.5002 56.5,64C 57.0442,64.7172 57.7109,65.2172 58.5,65.5C 61.4595,68.6448 64.7929,71.3115 68.5,73.5C 68.5,73.8333 68.5,74.1667 68.5,74.5C 68.5,89.8333 68.5,105.167 68.5,120.5C 66.5853,120.216 64.9187,120.549 63.5,121.5C 62.2089,122.542 62.2089,123.708 63.5,125C 65.1341,125.494 66.8008,125.66 68.5,125.5C 68.5,127.167 68.5,128.833 68.5,130.5C 64.6295,131.799 60.6295,132.466 56.5,132.5C 56.5,134.167 56.5,135.833 56.5,137.5C 55.5,137.5 54.5,137.5 53.5,137.5C 51.7464,142.704 51.2464,148.037 52,153.5C 53.8706,154.997 54.8706,156.997 55,159.5C 56.4139,158.587 57.9139,158.587 59.5,159.5C 59.9731,160.906 60.9731,161.573 62.5,161.5C 63.5,161.5 64.5,161.5 65.5,161.5C 65.5,164.5 65.5,167.5 65.5,170.5C 62.8333,170.5 60.1667,170.5 57.5,170.5C 56.4168,170.539 55.4168,170.873 54.5,171.5C 53.9202,173.637 52.9202,175.47 51.5,177C 60.7833,178.187 70.1167,178.853 79.5,179C 79.0426,179.414 78.7093,179.914 78.5,180.5C 73.5,181.167 68.5,181.833 63.5,182.5C 66,182.833 68.5,183.167 71,183.5C 75.6893,183.394 80.1893,182.894 84.5,182C 85.6721,182.419 86.6721,183.085 87.5,184C 85.1088,185.309 85.1088,186.309 87.5,187C 84.854,187.497 82.1873,187.664 79.5,187.5C 79.281,188.675 79.6143,189.675 80.5,190.5C 85.3189,188.039 90.3189,187.372 95.5,188.5C 92.7827,188.999 90.4494,190.165 88.5,192C 80.1915,191.546 71.8581,191.546 63.5,192C 58.2063,192.818 58.2063,193.318 63.5,193.5C 63.853,195.635 63.0197,196.968 61,197.5C 59.4587,195.983 57.6254,194.816 55.5,194C 51.8484,193.501 48.1817,193.335 44.5,193.5C 44.5,194.833 44.5,196.167 44.5,197.5C 42.901,197.232 41.5676,197.566 40.5,198.5C 32.1454,192.478 25.1454,185.145 19.5,176.5C 16.716,168.865 13.216,161.532 9,154.5C 7.64312,150.935 6.80979,147.268 6.5,143.5C 7.55198,143.649 8.55198,143.483 9.5,143C 7.95438,141.56 7.12104,139.727 7,137.5C 6.7978,139.256 6.2978,140.922 5.5,142.5C 4.74917,141.624 4.24917,140.624 4,139.5C 2.42118,122.206 2.08784,104.872 3,87.5C 5.05141,81.9607 6.55141,76.294 7.5,70.5C 12.6558,55.6898 20.9892,43.0231 32.5,32.5C 37.015,29.1589 41.6817,25.9923 46.5,23C 47.2191,20.4438 48.8858,19.2771 51.5,19.5C 51.33,20.8221 51.6634,21.9887 52.5,23C 55.025,23.8959 57.1917,23.3959 59,21.5C 59.9078,23.4386 61.4078,24.4386 63.5,24.5C 63.3367,26.8568 63.5034,29.1902 64,31.5C 66.7191,30.5562 69.5525,30.2229 72.5,30.5C 72.5,31.5 72.5,32.5 72.5,33.5C 74.143,33.5198 75.4763,32.8532 76.5,31.5C 79.4771,33.7035 82.6437,34.0368 86,32.5C 86.5,33 87,33.5 87.5,34C 83.3123,34.1762 79.3123,34.6762 75.5,35.5 Z"/></g>
<g><path style="opacity:1" fill="#9e8340" d="M 75.5,35.5 C 99.5,35.5 123.5,35.5 147.5,35.5C 147.5,42.8333 147.5,50.1667 147.5,57.5C 145.167,57.5 142.833,57.5 140.5,57.5C 140.167,57.5 139.833,57.5 139.5,57.5C 141.607,56.5318 143.941,56.1984 146.5,56.5C 146.5,50.1667 146.5,43.8333 146.5,37.5C 141.5,37.5 136.5,37.5 131.5,37.5C 124.646,37.176 117.979,37.5093 111.5,38.5C 110.833,38.5 110.167,38.5 109.5,38.5C 108.167,37.1667 106.833,37.1667 105.5,38.5C 102.956,38.1043 100.789,38.771 99,40.5C 98.501,44.8206 98.3343,49.1539 98.5,53.5C 97.8333,53.5 97.1667,53.5 96.5,53.5C 96.5,48.5 96.5,43.5 96.5,38.5C 95.1667,38.5 93.8333,38.5 92.5,38.5C 91.8333,46.5 91.1667,46.5 90.5,38.5C 89.1667,38.5 87.8333,38.5 86.5,38.5C 83.3752,37.5206 80.0419,37.1872 76.5,37.5C 76.5,43.8333 76.5,50.1667 76.5,56.5C 79.0593,56.1984 81.3926,56.5318 83.5,57.5C 83.1667,57.5 82.8333,57.5 82.5,57.5C 80.1667,57.5 77.8333,57.5 75.5,57.5C 75.5,50.1667 75.5,42.8333 75.5,35.5 Z"/></g>
<g><path style="opacity:1" fill="#b9720a" d="M 86.5,38.5 C 86.5,38.8333 86.5,39.1667 86.5,39.5C 85.6849,44.6808 85.0182,50.0142 84.5,55.5C 92.5389,54.9297 100.206,54.9297 107.5,55.5C 107.5,54.5 107.5,53.5 107.5,52.5C 108.038,47.5329 107.371,42.8662 105.5,38.5C 106.833,37.1667 108.167,37.1667 109.5,38.5C 108.596,39.209 108.263,40.209 108.5,41.5C 109.5,41.5 110.5,41.5 111.5,41.5C 111.5,45.8333 111.5,50.1667 111.5,54.5C 112.833,54.5 114.167,54.5 115.5,54.5C 115.5,50.8333 115.5,47.1667 115.5,43.5C 116.391,42.8902 117.391,42.5569 118.5,42.5C 118.183,46.7016 118.517,50.7016 119.5,54.5C 120.334,55.7479 121.667,56.4146 123.5,56.5C 128.02,56.1149 132.354,55.4483 136.5,54.5C 136.5,53.5 136.5,52.5 136.5,51.5C 135.167,51.5 133.833,51.5 132.5,51.5C 132.818,46.9677 132.485,42.6344 131.5,38.5C 131.5,38.1667 131.5,37.8333 131.5,37.5C 136.5,37.5 141.5,37.5 146.5,37.5C 146.5,43.8333 146.5,50.1667 146.5,56.5C 143.941,56.1984 141.607,56.5318 139.5,57.5C 139.5,59.5 139.5,61.5 139.5,63.5C 137.5,63.5 135.5,63.5 133.5,63.5C 133.5,61.5 133.5,59.5 133.5,57.5C 118.833,57.5 104.167,57.5 89.5,57.5C 89.5,59.5 89.5,61.5 89.5,63.5C 87.5,63.5 85.5,63.5 83.5,63.5C 83.5,61.5 83.5,59.5 83.5,57.5C 81.3926,56.5318 79.0593,56.1984 76.5,56.5C 76.5,50.1667 76.5,43.8333 76.5,37.5C 80.0419,37.1872 83.3752,37.5206 86.5,38.5 Z"/></g>
<g><path style="opacity:1" fill="#ac7826" d="M 86.5,39.5 C 86.5,44.5 86.5,49.5 86.5,54.5C 87.8333,54.5 89.1667,54.5 90.5,54.5C 91.1667,46.5 91.8333,46.5 92.5,54.5C 94.099,54.7678 95.4324,54.4345 96.5,53.5C 97.1667,53.5 97.8333,53.5 98.5,53.5C 101.737,55.0146 104.737,54.6813 107.5,52.5C 107.5,53.5 107.5,54.5 107.5,55.5C 100.206,54.9297 92.5389,54.9297 84.5,55.5C 85.0182,50.0142 85.6849,44.6808 86.5,39.5 Z"/></g>
<g><path style="opacity:1" fill="#f4e8b7" d="M 105.5,38.5 C 107.371,42.8662 108.038,47.5329 107.5,52.5C 104.737,54.6813 101.737,55.0146 98.5,53.5C 98.3343,49.1539 98.501,44.8206 99,40.5C 100.789,38.771 102.956,38.1043 105.5,38.5 Z"/></g>
<g><path style="opacity:1" fill="#a97826" d="M 101.5,41.5 C 102.777,42.6936 103.444,44.3603 103.5,46.5C 103.167,48.1667 102.833,49.8333 102.5,51.5C 101.513,48.2317 101.18,44.8984 101.5,41.5 Z"/></g>
<g><path style="opacity:1" fill="#f3dea9" d="M 86.5,38.5 C 87.8333,38.5 89.1667,38.5 90.5,38.5C 91.1667,46.5 91.8333,46.5 92.5,38.5C 93.8333,38.5 95.1667,38.5 96.5,38.5C 96.5,43.5 96.5,48.5 96.5,53.5C 95.4324,54.4345 94.099,54.7678 92.5,54.5C 91.8333,46.5 91.1667,46.5 90.5,54.5C 89.1667,54.5 87.8333,54.5 86.5,54.5C 86.5,49.5 86.5,44.5 86.5,39.5C 86.5,39.1667 86.5,38.8333 86.5,38.5 Z"/></g>
<g><path style="opacity:1" fill="#e7c993" d="M 131.5,38.5 C 132.485,42.6344 132.818,46.9677 132.5,51.5C 133.833,51.5 135.167,51.5 136.5,51.5C 136.5,52.5 136.5,53.5 136.5,54.5C 134.167,54.5 131.833,54.5 129.5,54.5C 128.887,48.7291 129.554,43.3958 131.5,38.5 Z"/></g>
<g><path style="opacity:1" fill="#e4c893" d="M 109.5,38.5 C 110.167,38.5 110.833,38.5 111.5,38.5C 113.5,38.5 115.5,38.5 117.5,38.5C 117.169,40.3224 116.502,41.9891 115.5,43.5C 115.5,47.1667 115.5,50.8333 115.5,54.5C 114.167,54.5 112.833,54.5 111.5,54.5C 111.5,50.1667 111.5,45.8333 111.5,41.5C 110.5,41.5 109.5,41.5 108.5,41.5C 108.263,40.209 108.596,39.209 109.5,38.5 Z"/></g>
<g><path style="opacity:1" fill="#e5c791" d="M 119.5,54.5 C 118.517,50.7016 118.183,46.7016 118.5,42.5C 118.5,41.1667 118.5,39.8333 118.5,38.5C 121.167,38.5 123.833,38.5 126.5,38.5C 126.5,39.5 126.5,40.5 126.5,41.5C 125.167,41.5 123.833,41.5 122.5,41.5C 122.5,42.8333 122.5,44.1667 122.5,45.5C 126.5,46.1667 126.5,46.8333 122.5,47.5C 122.5,48.8333 122.5,50.1667 122.5,51.5C 123.833,51.5 125.167,51.5 126.5,51.5C 126.5,52.5 126.5,53.5 126.5,54.5C 124.167,54.5 121.833,54.5 119.5,54.5 Z"/></g>
<g><path style="opacity:1" fill="#b37d2c" d="M 111.5,38.5 C 117.979,37.5093 124.646,37.176 131.5,37.5C 131.5,37.8333 131.5,38.1667 131.5,38.5C 129.554,43.3958 128.887,48.7291 129.5,54.5C 131.833,54.5 134.167,54.5 136.5,54.5C 132.354,55.4483 128.02,56.1149 123.5,56.5C 121.667,56.4146 120.334,55.7479 119.5,54.5C 121.833,54.5 124.167,54.5 126.5,54.5C 126.5,53.5 126.5,52.5 126.5,51.5C 125.167,51.5 123.833,51.5 122.5,51.5C 122.5,50.1667 122.5,48.8333 122.5,47.5C 126.5,46.8333 126.5,46.1667 122.5,45.5C 122.5,44.1667 122.5,42.8333 122.5,41.5C 123.833,41.5 125.167,41.5 126.5,41.5C 126.5,40.5 126.5,39.5 126.5,38.5C 123.833,38.5 121.167,38.5 118.5,38.5C 118.5,39.8333 118.5,41.1667 118.5,42.5C 117.391,42.5569 116.391,42.8902 115.5,43.5C 116.502,41.9891 117.169,40.3224 117.5,38.5C 115.5,38.5 113.5,38.5 111.5,38.5 Z"/></g>
<g><path style="opacity:1" fill="#fa9c08" d="M 133.5,63.5 C 118.833,63.5 104.167,63.5 89.5,63.5C 89.5,61.5 89.5,59.5 89.5,57.5C 104.167,57.5 118.833,57.5 133.5,57.5C 133.5,59.5 133.5,61.5 133.5,63.5 Z"/></g>
<g><path style="opacity:1" fill="#b8d8c4" d="M 82.5,57.5 C 82.8333,57.5 83.1667,57.5 83.5,57.5C 83.5,59.5 83.5,61.5 83.5,63.5C 83.5,63.8333 83.5,64.1667 83.5,64.5C 82.5,64.5 81.5,64.5 80.5,64.5C 72.9809,64.175 65.6476,64.5084 58.5,65.5C 57.7109,65.2172 57.0442,64.7172 56.5,64C 65.1603,63.5002 73.8269,63.3336 82.5,63.5C 82.5,61.5 82.5,59.5 82.5,57.5 Z"/></g>
<g><path style="opacity:1" fill="#86b9c1" d="M 140.5,57.5 C 142.833,57.5 145.167,57.5 147.5,57.5C 145.735,58.4614 143.735,58.7947 141.5,58.5C 141.5,59.8333 141.5,61.1667 141.5,62.5C 149.84,62.3336 158.173,62.5003 166.5,63C 167.337,64.0113 167.67,65.1779 167.5,66.5C 169.869,66.1489 172.203,65.9822 174.5,66C 175.747,67.4936 175.747,68.9936 174.5,70.5C 173.549,69.6744 172.549,69.5078 171.5,70C 167.742,71.9229 164.409,74.4229 161.5,77.5C 160.281,76.7366 159.281,75.7366 158.5,74.5C 157.573,76.1128 156.739,77.7795 156,79.5C 155.5,92.4957 155.333,105.496 155.5,118.5C 157.973,118.088 159.306,119.088 159.5,121.5C 143.5,121.5 127.5,121.5 111.5,121.5C 95.5,121.5 79.5,121.5 63.5,121.5C 64.9187,120.549 66.5853,120.216 68.5,120.5C 82.8333,120.5 97.1667,120.5 111.5,120.5C 125.833,120.5 140.167,120.5 154.5,120.5C 154.5,105.167 154.5,89.8333 154.5,74.5C 140.167,74.5 125.833,74.5 111.5,74.5C 97.1667,74.5 82.8333,74.5 68.5,74.5C 68.5,74.1667 68.5,73.8333 68.5,73.5C 82.8333,73.5 97.1667,73.5 111.5,73.5C 127.17,73.6666 142.837,73.4999 158.5,73C 160.644,70.0211 162.978,67.1878 165.5,64.5C 157.193,63.5021 148.86,63.1688 140.5,63.5C 140.5,61.5 140.5,59.5 140.5,57.5 Z"/></g>
<g><path style="opacity:1" fill="#f1efc9" d="M 80.5,64.5 C 81.5,64.5 82.5,64.5 83.5,64.5C 92.8333,64.5 102.167,64.5 111.5,64.5C 111.5,67.1667 111.5,69.8333 111.5,72.5C 96.8182,72.8326 82.1515,72.4993 67.5,71.5C 64.1732,69.2531 64.1732,67.7531 67.5,67C 71.5411,66.1735 75.5411,66.3401 79.5,67.5C 77.5175,69.0245 75.1841,70.0245 72.5,70.5C 74.6667,70.8333 76.8333,71.1667 79,71.5C 89.0993,71.4957 99.5993,71.1623 110.5,70.5C 110.192,69.6919 109.692,69.0253 109,68.5C 105.333,68.8333 101.667,69.1667 98,69.5C 94.8102,67.1198 92.1436,67.1198 90,69.5C 88.3745,69.1459 86.5412,69.1459 84.5,69.5C 84.5922,66.6 83.2589,64.9333 80.5,64.5 Z"/></g>
<g><path style="opacity:1" fill="#e0cda5" d="M 83.5,64.5 C 83.5,64.1667 83.5,63.8333 83.5,63.5C 85.5,63.5 87.5,63.5 89.5,63.5C 104.167,63.5 118.833,63.5 133.5,63.5C 135.5,63.5 137.5,63.5 139.5,63.5C 147.323,64.3292 155.323,64.8292 163.5,65C 160.701,68.1822 157.368,70.5156 153.5,72C 139.504,72.4999 125.504,72.6666 111.5,72.5C 111.5,69.8333 111.5,67.1667 111.5,64.5C 102.167,64.5 92.8333,64.5 83.5,64.5 Z"/></g>
<g><path style="opacity:1" fill="#ebf1d2" d="M 80.5,64.5 C 83.2589,64.9333 84.5922,66.6 84.5,69.5C 86.5412,69.1459 88.3745,69.1459 90,69.5C 92.1436,67.1198 94.8102,67.1198 98,69.5C 101.667,69.1667 105.333,68.8333 109,68.5C 109.692,69.0253 110.192,69.6919 110.5,70.5C 99.5993,71.1623 89.0993,71.4957 79,71.5C 76.8333,71.1667 74.6667,70.8333 72.5,70.5C 75.1841,70.0245 77.5175,69.0245 79.5,67.5C 75.5411,66.3401 71.5411,66.1735 67.5,67C 64.1732,67.7531 64.1732,69.2531 67.5,71.5C 82.1515,72.4993 96.8182,72.8326 111.5,72.5C 111.5,72.8333 111.5,73.1667 111.5,73.5C 97.1667,73.5 82.8333,73.5 68.5,73.5C 64.7929,71.3115 61.4595,68.6448 58.5,65.5C 65.6476,64.5084 72.9809,64.175 80.5,64.5 Z"/></g>
<g><path style="opacity:1" fill="#d1d3b8" d="M 139.5,57.5 C 139.833,57.5 140.167,57.5 140.5,57.5C 140.5,59.5 140.5,61.5 140.5,63.5C 148.86,63.1688 157.193,63.5021 165.5,64.5C 162.978,67.1878 160.644,70.0211 158.5,73C 142.837,73.4999 127.17,73.6666 111.5,73.5C 111.5,73.1667 111.5,72.8333 111.5,72.5C 125.504,72.6666 139.504,72.4999 153.5,72C 157.368,70.5156 160.701,68.1822 163.5,65C 155.323,64.8292 147.323,64.3292 139.5,63.5C 139.5,61.5 139.5,59.5 139.5,57.5 Z"/></g>
<g><path style="opacity:1" fill="#022c3f" d="M 111.5,74.5 C 125.833,74.5 140.167,74.5 154.5,74.5C 154.5,89.8333 154.5,105.167 154.5,120.5C 140.167,120.5 125.833,120.5 111.5,120.5C 111.5,120.167 111.5,119.833 111.5,119.5C 111.5,117.167 111.5,114.833 111.5,112.5C 108.615,112.806 105.948,112.473 103.5,111.5C 106.167,111.5 108.833,111.5 111.5,111.5C 114.167,111.5 116.833,111.5 119.5,111.5C 119.5,104.5 119.5,97.5 119.5,90.5C 117.052,89.5269 114.385,89.1936 111.5,89.5C 111.5,84.8333 111.5,80.1667 111.5,75.5C 111.5,75.1667 111.5,74.8333 111.5,74.5 Z"/></g>
<g><path style="opacity:1" fill="#0489a4" d="M 111.5,90.5 C 114.167,90.5 116.833,90.5 119.5,90.5C 119.5,97.5 119.5,104.5 119.5,111.5C 116.833,111.5 114.167,111.5 111.5,111.5C 111.5,104.5 111.5,97.5 111.5,90.5 Z"/></g>
<g><path style="opacity:1" fill="#0688a2" d="M 129.5,90.5 C 134.833,90.5 140.167,90.5 145.5,90.5C 145.5,97.5 145.5,104.5 145.5,111.5C 140.167,111.5 134.833,111.5 129.5,111.5C 129.5,104.5 129.5,97.5 129.5,90.5 Z"/></g>
<g><path style="opacity:1" fill="#08bdca" d="M 111.5,90.5 C 111.5,97.5 111.5,104.5 111.5,111.5C 108.833,111.5 106.167,111.5 103.5,111.5C 103.5,104.5 103.5,97.5 103.5,90.5C 106.167,90.5 108.833,90.5 111.5,90.5 Z"/></g>
<g><path style="opacity:1" fill="#105267" d="M 68.5,74.5 C 82.8333,74.5 97.1667,74.5 111.5,74.5C 111.5,74.8333 111.5,75.1667 111.5,75.5C 97.5,75.5 83.5,75.5 69.5,75.5C 69.5,90.1667 69.5,104.833 69.5,119.5C 83.5,119.5 97.5,119.5 111.5,119.5C 111.5,119.833 111.5,120.167 111.5,120.5C 97.1667,120.5 82.8333,120.5 68.5,120.5C 68.5,105.167 68.5,89.8333 68.5,74.5 Z"/></g>
<g><path style="opacity:1" fill="#035475" d="M 111.5,75.5 C 111.5,80.1667 111.5,84.8333 111.5,89.5C 114.385,89.1936 117.052,89.5269 119.5,90.5C 116.833,90.5 114.167,90.5 111.5,90.5C 108.833,90.5 106.167,90.5 103.5,90.5C 103.5,97.5 103.5,104.5 103.5,111.5C 105.948,112.473 108.615,112.806 111.5,112.5C 111.5,114.833 111.5,117.167 111.5,119.5C 97.5,119.5 83.5,119.5 69.5,119.5C 69.5,104.833 69.5,90.1667 69.5,75.5C 83.5,75.5 97.5,75.5 111.5,75.5 Z"/></g>
<g><path style="opacity:1" fill="#00445c" d="M 76.5,88.5 C 82.561,88.2096 88.561,88.5429 94.5,89.5C 95.4975,97.1378 95.8308,104.804 95.5,112.5C 89.1667,112.5 82.8333,112.5 76.5,112.5C 76.5,104.5 76.5,96.5 76.5,88.5 Z"/></g>
<g><path style="opacity:1" fill="#04c1cb" d="M 93.5,91.5 C 93.5,97.8333 93.5,104.167 93.5,110.5C 88.5,110.5 83.5,110.5 78.5,110.5C 78.1707,104.463 78.5041,98.4632 79.5,92.5C 84.1001,91.5565 88.7668,91.2232 93.5,91.5 Z"/></g>
<g><path style="opacity:1" fill="#119fb0" d="M 93.5,91.5 C 88.7668,91.2232 84.1001,91.5565 79.5,92.5C 78.5041,98.4632 78.1707,104.463 78.5,110.5C 83.5,110.5 88.5,110.5 93.5,110.5C 88.3595,111.488 83.0262,111.821 77.5,111.5C 77.5,104.5 77.5,97.5 77.5,90.5C 83.0262,90.1786 88.3595,90.5119 93.5,91.5 Z"/></g>
<g><path style="opacity:1" fill="#8bcad7" d="M 7.5,70.5 C 6.55141,76.294 5.05141,81.9607 3,87.5C 2.08784,104.872 2.42118,122.206 4,139.5C 4.24917,140.624 4.74917,141.624 5.5,142.5C 6.2978,140.922 6.7978,139.256 7,137.5C 7.12104,139.727 7.95438,141.56 9.5,143C 8.55198,143.483 7.55198,143.649 6.5,143.5C 6.80979,147.268 7.64312,150.935 9,154.5C 13.216,161.532 16.716,168.865 19.5,176.5C 8.74362,161.63 2.41029,144.964 0.5,126.5C 0.483764,115.253 0.650431,103.92 1,92.5C 1.94871,84.6847 4.11538,77.3514 7.5,70.5 Z"/></g>
<g><path style="opacity:1" fill="#eff0cd" d="M 111.5,122.5 C 111.5,123.167 111.5,123.833 111.5,124.5C 48.8333,123.833 48.8333,123.167 111.5,122.5 Z"/></g>
<g><path style="opacity:1" fill="#dfcfa8" d="M 111.5,122.5 C 174.167,123.167 174.167,123.833 111.5,124.5C 111.5,123.833 111.5,123.167 111.5,122.5 Z"/></g>
<g><path style="opacity:1" fill="#e8f7e1" d="M 63.5,121.5 C 79.5,121.5 95.5,121.5 111.5,121.5C 111.5,121.833 111.5,122.167 111.5,122.5C 48.8333,123.167 48.8333,123.833 111.5,124.5C 111.5,124.833 111.5,125.167 111.5,125.5C 97.1667,125.5 82.8333,125.5 68.5,125.5C 66.8008,125.66 65.1341,125.494 63.5,125C 62.2089,123.708 62.2089,122.542 63.5,121.5 Z"/></g>
<g><path style="opacity:1" fill="#d8d5bc" d="M 111.5,122.5 C 111.5,122.167 111.5,121.833 111.5,121.5C 127.5,121.5 143.5,121.5 159.5,121.5C 159.833,121.5 160.167,121.5 160.5,121.5C 160.938,125.908 158.938,127.575 154.5,126.5C 140.343,125.504 126.01,125.171 111.5,125.5C 111.5,125.167 111.5,124.833 111.5,124.5C 174.167,123.833 174.167,123.167 111.5,122.5 Z"/></g>
<g><path style="opacity:1" fill="#062b3c" d="M 154.5,126.5 C 154.5,128.5 154.5,130.5 154.5,132.5C 152.901,132.232 151.568,132.566 150.5,133.5C 150.167,133.5 149.833,133.5 149.5,133.5C 145.833,135.167 143.167,137.833 141.5,141.5C 141.5,141.833 141.5,142.167 141.5,142.5C 140.359,145.64 140.192,148.973 141,152.5C 141.377,153.942 142.21,154.942 143.5,155.5C 145.023,158.937 147.689,160.937 151.5,161.5C 152.414,164.728 152.747,168.061 152.5,171.5C 151.046,172.52 150.713,173.687 151.5,175C 145.843,175.499 140.176,175.666 134.5,175.5C 134.5,164.5 134.5,153.5 134.5,142.5C 136.897,140.544 136.897,138.71 134.5,137C 126.841,136.5 119.174,136.334 111.5,136.5C 111.5,133.167 111.5,129.833 111.5,126.5C 125.833,126.5 140.167,126.5 154.5,126.5 Z"/></g>
<g><path style="opacity:1" fill="#195771" d="M 68.5,125.5 C 82.8333,125.5 97.1667,125.5 111.5,125.5C 126.01,125.171 140.343,125.504 154.5,126.5C 140.167,126.5 125.833,126.5 111.5,126.5C 111.5,129.833 111.5,133.167 111.5,136.5C 103.648,136.175 95.9818,136.508 88.5,137.5C 86.0428,139.001 86.0428,140.668 88.5,142.5C 88.5,151.833 88.5,161.167 88.5,170.5C 82.5,170.5 76.5,170.5 70.5,170.5C 70.2641,167.391 70.5975,164.391 71.5,161.5C 72.1667,161.5 72.8333,161.5 73.5,161.5C 77.46,160.705 79.7934,158.371 80.5,154.5C 82.4387,150.469 82.9387,146.136 82,141.5C 80.2845,138.283 77.7845,135.95 74.5,134.5C 74.1667,134.5 73.8333,134.5 73.5,134.5C 72.2196,133.069 70.5529,132.402 68.5,132.5C 68.5,131.833 68.5,131.167 68.5,130.5C 68.5,128.833 68.5,127.167 68.5,125.5 Z"/></g>
<g><path style="opacity:1" fill="#89c3bd" d="M 68.5,130.5 C 68.5,131.167 68.5,131.833 68.5,132.5C 64.5698,132.635 61.2365,133.968 58.5,136.5C 57.8333,136.833 57.1667,137.167 56.5,137.5C 56.5,135.833 56.5,134.167 56.5,132.5C 60.6295,132.466 64.6295,131.799 68.5,130.5 Z"/></g>
<g><path style="opacity:1" fill="#9a7c39" d="M 150.5,133.5 C 151.568,132.566 152.901,132.232 154.5,132.5C 157.166,132.933 159.832,133.433 162.5,134C 163.056,134.383 163.389,134.883 163.5,135.5C 159.228,134.51 154.894,133.844 150.5,133.5 Z"/></g>
<g><path style="opacity:1" fill="#7dc6d0" d="M 160.5,121.5 C 161.5,121.5 162.5,121.5 163.5,121.5C 163.232,124.119 163.565,126.619 164.5,129C 162.744,129.202 161.078,129.702 159.5,130.5C 159.667,130.833 159.833,131.167 160,131.5C 162.81,132.836 165.643,133.169 168.5,132.5C 171.461,133.183 171.795,134.016 169.5,135C 170.833,135.333 172.167,135.667 173.5,136C 172.151,136.772 171.318,137.939 171,139.5C 171.146,146.115 170.146,152.448 168,158.5C 167.329,159.252 166.496,159.586 165.5,159.5C 166.6,158.395 167.267,157.062 167.5,155.5C 167.5,155.167 167.5,154.833 167.5,154.5C 168.117,154.389 168.617,154.056 169,153.5C 169.667,149.5 169.667,145.5 169,141.5C 168.617,140.944 168.117,140.611 167.5,140.5C 166.92,138.251 165.587,136.585 163.5,135.5C 163.389,134.883 163.056,134.383 162.5,134C 159.832,133.433 157.166,132.933 154.5,132.5C 154.5,130.5 154.5,128.5 154.5,126.5C 158.938,127.575 160.938,125.908 160.5,121.5 Z"/></g>
<g><path style="opacity:1" fill="#a67725" d="M 68.5,132.5 C 70.5529,132.402 72.2196,133.069 73.5,134.5C 68.3939,134.523 63.3939,135.189 58.5,136.5C 61.2365,133.968 64.5698,132.635 68.5,132.5 Z"/></g>
<g><path style="opacity:1" fill="#916c2e" d="M 149.5,133.5 C 147.167,136.5 144.5,139.167 141.5,141.5C 143.167,137.833 145.833,135.167 149.5,133.5 Z"/></g>
<g><path style="opacity:1" fill="#eeefcb" d="M 88.5,137.5 C 96.1667,137.5 103.833,137.5 111.5,137.5C 111.5,138.833 111.5,140.167 111.5,141.5C 104.313,141.175 97.3134,141.509 90.5,142.5C 90.1667,142.5 89.8333,142.5 89.5,142.5C 89.1667,142.5 88.8333,142.5 88.5,142.5C 86.0428,140.668 86.0428,139.001 88.5,137.5 Z"/></g>
<g><path style="opacity:1" fill="#d2cbae" d="M 88.5,137.5 C 95.9818,136.508 103.648,136.175 111.5,136.5C 119.174,136.334 126.841,136.5 134.5,137C 136.897,138.71 136.897,140.544 134.5,142.5C 134.167,142.5 133.833,142.5 133.5,142.5C 133.167,142.5 132.833,142.5 132.5,142.5C 125.687,141.509 118.687,141.175 111.5,141.5C 111.5,140.167 111.5,138.833 111.5,137.5C 103.833,137.5 96.1667,137.5 88.5,137.5 Z"/></g>
<g><path style="opacity:1" fill="#e3b056" d="M 90.5,142.5 C 97.3134,141.509 104.313,141.175 111.5,141.5C 118.687,141.175 125.687,141.509 132.5,142.5C 126.167,142.5 119.833,142.5 113.5,142.5C 113.5,153.5 113.5,164.5 113.5,175.5C 113.167,175.5 112.833,175.5 112.5,175.5C 112.828,164.321 112.495,153.321 111.5,142.5C 111.167,142.5 110.833,142.5 110.5,142.5C 103.833,142.5 97.1667,142.5 90.5,142.5 Z"/></g>
<g><path style="opacity:1" fill="#bb7006" d="M 149.5,133.5 C 149.833,133.5 150.167,133.5 150.5,133.5C 154.894,133.844 159.228,134.51 163.5,135.5C 165.587,136.585 166.92,138.251 167.5,140.5C 168.833,145.167 168.833,149.833 167.5,154.5C 167.5,154.833 167.5,155.167 167.5,155.5C 164.648,157.325 161.982,159.325 159.5,161.5C 158.833,161.5 158.167,161.5 157.5,161.5C 156.834,165.021 156.167,168.687 155.5,172.5C 154.833,169.023 154.166,165.689 153.5,162.5C 153.158,161.662 152.492,161.328 151.5,161.5C 147.689,160.937 145.023,158.937 143.5,155.5C 141.817,151.364 141.15,147.031 141.5,142.5C 141.5,142.167 141.5,141.833 141.5,141.5C 144.5,139.167 147.167,136.5 149.5,133.5 Z"/></g>
<g><path style="opacity:1" fill="#956819" d="M 132.5,142.5 C 132.833,142.5 133.167,142.5 133.5,142.5C 134.144,154.216 133.478,165.549 131.5,176.5C 124.978,176.823 118.645,176.49 112.5,175.5C 112.833,175.5 113.167,175.5 113.5,175.5C 119.833,175.5 126.167,175.5 132.5,175.5C 132.5,164.5 132.5,153.5 132.5,142.5 Z"/></g>
<g><path style="opacity:1" fill="#be7002" d="M 73.5,134.5 C 73.8333,134.5 74.1667,134.5 74.5,134.5C 75.038,136.117 75.3713,137.784 75.5,139.5C 77.1439,139.286 78.6439,139.62 80,140.5C 80.4986,144.152 80.6653,147.818 80.5,151.5C 78.6889,150.178 76.6889,149.678 74.5,150C 71.9204,153.158 69.5871,156.492 67.5,160C 66.0563,160.781 64.723,160.614 63.5,159.5C 66.0806,157.326 66.0806,155.16 63.5,153C 62.0852,153.255 60.5852,153.755 59,154.5C 58.1667,154.167 57.3333,153.833 56.5,153.5C 60.3579,149.027 60.3579,144.694 56.5,140.5C 57.8532,139.476 58.5198,138.143 58.5,136.5C 63.3939,135.189 68.3939,134.523 73.5,134.5 Z"/></g>
<g><path style="opacity:1" fill="#9b792d" d="M 167.5,140.5 C 168.117,140.611 168.617,140.944 169,141.5C 169.667,145.5 169.667,149.5 169,153.5C 168.617,154.056 168.117,154.389 167.5,154.5C 168.833,149.833 168.833,145.167 167.5,140.5 Z"/></g>
<g><path style="opacity:1" fill="#9e752c" d="M 74.5,134.5 C 77.7845,135.95 80.2845,138.283 82,141.5C 82.9387,146.136 82.4387,150.469 80.5,154.5C 80.5,153.5 80.5,152.5 80.5,151.5C 80.6653,147.818 80.4986,144.152 80,140.5C 78.6439,139.62 77.1439,139.286 75.5,139.5C 75.3713,137.784 75.038,136.117 74.5,134.5 Z"/></g>
<g><path style="opacity:1" fill="#846d39" d="M 141.5,142.5 C 141.15,147.031 141.817,151.364 143.5,155.5C 142.21,154.942 141.377,153.942 141,152.5C 140.192,148.973 140.359,145.64 141.5,142.5 Z"/></g>
<g><path style="opacity:1" fill="#89c0ba" d="M 56.5,137.5 C 51.7541,145.636 52.7541,152.969 59.5,159.5C 57.9139,158.587 56.4139,158.587 55,159.5C 54.8706,156.997 53.8706,154.997 52,153.5C 51.2464,148.037 51.7464,142.704 53.5,137.5C 54.5,137.5 55.5,137.5 56.5,137.5 Z"/></g>
<g><path style="opacity:1" fill="#ed9f20" d="M 132.5,142.5 C 132.5,153.5 132.5,164.5 132.5,175.5C 126.167,175.5 119.833,175.5 113.5,175.5C 113.5,164.5 113.5,153.5 113.5,142.5C 119.833,142.5 126.167,142.5 132.5,142.5 Z"/></g>
<g><path style="opacity:1" fill="#fe9c01" d="M 114.5,143.5 C 120.167,143.5 125.833,143.5 131.5,143.5C 131.5,153.833 131.5,164.167 131.5,174.5C 125.833,174.5 120.167,174.5 114.5,174.5C 114.5,164.167 114.5,153.833 114.5,143.5 Z"/></g>
<g><path style="opacity:1" fill="#556048" d="M 80.5,154.5 C 79.7934,158.371 77.46,160.705 73.5,161.5C 76.0698,159.386 78.4032,157.053 80.5,154.5 Z"/></g>
<g><path style="opacity:1" fill="#b57310" d="M 58.5,136.5 C 58.5198,138.143 57.8532,139.476 56.5,140.5C 60.3579,144.694 60.3579,149.027 56.5,153.5C 57.3333,153.833 58.1667,154.167 59,154.5C 60.5852,153.755 62.0852,153.255 63.5,153C 66.0806,155.16 66.0806,157.326 63.5,159.5C 64.723,160.614 66.0563,160.781 67.5,160C 69.5871,156.492 71.9204,153.158 74.5,150C 76.6889,149.678 78.6889,150.178 80.5,151.5C 80.5,152.5 80.5,153.5 80.5,154.5C 78.4032,157.053 76.0698,159.386 73.5,161.5C 72.8333,161.5 72.1667,161.5 71.5,161.5C 69.5772,165.029 68.9106,169.029 69.5,173.5C 68.1667,173.5 66.8333,173.5 65.5,173.5C 65.5,172.5 65.5,171.5 65.5,170.5C 65.5,167.5 65.5,164.5 65.5,161.5C 64.5,161.5 63.5,161.5 62.5,161.5C 62.0269,160.094 61.0269,159.427 59.5,159.5C 52.7541,152.969 51.7541,145.636 56.5,137.5C 57.1667,137.167 57.8333,136.833 58.5,136.5 Z"/></g>
<g><path style="opacity:1" fill="#99a97e" d="M 59.5,159.5 C 61.0269,159.427 62.0269,160.094 62.5,161.5C 60.9731,161.573 59.9731,160.906 59.5,159.5 Z"/></g>
<g><path style="opacity:1" fill="#96aa84" d="M 167.5,155.5 C 167.267,157.062 166.6,158.395 165.5,159.5C 163.858,161.081 161.858,161.747 159.5,161.5C 161.982,159.325 164.648,157.325 167.5,155.5 Z"/></g>
<g><path style="opacity:1" fill="#786113" d="M 89.5,142.5 C 89.8333,142.5 90.1667,142.5 90.5,142.5C 89.8564,153.884 90.523,164.884 92.5,175.5C 98.1667,175.5 103.833,175.5 109.5,175.5C 110.495,164.679 110.828,153.679 110.5,142.5C 110.833,142.5 111.167,142.5 111.5,142.5C 111.5,153.833 111.5,165.167 111.5,176.5C 104.167,176.5 96.8333,176.5 89.5,176.5C 89.5,165.167 89.5,153.833 89.5,142.5 Z"/></g>
<g><path style="opacity:1" fill="#e9ba36" d="M 90.5,142.5 C 97.1667,142.5 103.833,142.5 110.5,142.5C 110.828,153.679 110.495,164.679 109.5,175.5C 109.5,164.833 109.5,154.167 109.5,143.5C 103.5,143.5 97.5,143.5 91.5,143.5C 91.1909,154.248 91.5242,164.915 92.5,175.5C 90.523,164.884 89.8564,153.884 90.5,142.5 Z"/></g>
<g><path style="opacity:1" fill="#fcb603" d="M 109.5,175.5 C 103.833,175.5 98.1667,175.5 92.5,175.5C 91.5242,164.915 91.1909,154.248 91.5,143.5C 97.5,143.5 103.5,143.5 109.5,143.5C 109.5,154.167 109.5,164.833 109.5,175.5 Z"/></g>
<g><path style="opacity:1" fill="#5d5f4b" d="M 71.5,161.5 C 70.5975,164.391 70.2641,167.391 70.5,170.5C 70.7373,171.791 70.404,172.791 69.5,173.5C 68.9106,169.029 69.5772,165.029 71.5,161.5 Z"/></g>
<g><path style="opacity:1" fill="#423a25" d="M 151.5,161.5 C 152.492,161.328 153.158,161.662 153.5,162.5C 153.5,166.167 153.5,169.833 153.5,173.5C 152.662,173.158 152.328,172.492 152.5,171.5C 152.747,168.061 152.414,164.728 151.5,161.5 Z"/></g>
<g><path style="opacity:1" fill="#a67a2c" d="M 157.5,161.5 C 157.5,164.5 157.5,167.5 157.5,170.5C 157.5,171.5 157.5,172.5 157.5,173.5C 156.167,173.5 154.833,173.5 153.5,173.5C 153.5,169.833 153.5,166.167 153.5,162.5C 154.166,165.689 154.833,169.023 155.5,172.5C 156.167,168.687 156.834,165.021 157.5,161.5 Z"/></g>
<g><path style="opacity:1" fill="#193c4d" d="M 57.5,170.5 C 60.1667,170.5 62.8333,170.5 65.5,170.5C 65.5,171.5 65.5,172.5 65.5,173.5C 65.4226,174.75 64.756,175.583 63.5,176C 72.1603,176.5 80.8269,176.666 89.5,176.5C 89.5,176.833 89.5,177.167 89.5,177.5C 78.8126,177.832 68.1459,177.499 57.5,176.5C 56.181,174.468 56.181,172.468 57.5,170.5 Z"/></g>
<g><path style="opacity:1" fill="#022e42" d="M 70.5,170.5 C 76.5,170.5 82.5,170.5 88.5,170.5C 88.5,172.167 88.5,173.833 88.5,175.5C 81.7453,176.123 75.412,175.456 69.5,173.5C 70.404,172.791 70.7373,171.791 70.5,170.5 Z"/></g>
<g><path style="opacity:1" fill="#0e2829" d="M 88.5,142.5 C 88.8333,142.5 89.1667,142.5 89.5,142.5C 89.5,153.833 89.5,165.167 89.5,176.5C 80.8269,176.666 72.1603,176.5 63.5,176C 64.756,175.583 65.4226,174.75 65.5,173.5C 66.8333,173.5 68.1667,173.5 69.5,173.5C 75.412,175.456 81.7453,176.123 88.5,175.5C 88.5,173.833 88.5,172.167 88.5,170.5C 88.5,161.167 88.5,151.833 88.5,142.5 Z"/></g>
<g><path style="opacity:1" fill="#152124" d="M 133.5,142.5 C 133.833,142.5 134.167,142.5 134.5,142.5C 134.5,153.5 134.5,164.5 134.5,175.5C 140.176,175.666 145.843,175.499 151.5,175C 150.713,173.687 151.046,172.52 152.5,171.5C 152.328,172.492 152.662,173.158 153.5,173.5C 154.833,173.5 156.167,173.5 157.5,173.5C 157.5,172.5 157.5,171.5 157.5,170.5C 160.249,170.274 162.916,170.607 165.5,171.5C 166.848,173.611 166.515,175.445 164.5,177C 153.505,177.5 142.505,177.667 131.5,177.5C 131.5,177.167 131.5,176.833 131.5,176.5C 133.478,165.549 134.144,154.216 133.5,142.5 Z"/></g>
<g><path style="opacity:1" fill="#332813" d="M 111.5,142.5 C 112.495,153.321 112.828,164.321 112.5,175.5C 118.645,176.49 124.978,176.823 131.5,176.5C 131.5,176.833 131.5,177.167 131.5,177.5C 117.5,177.5 103.5,177.5 89.5,177.5C 89.5,177.167 89.5,176.833 89.5,176.5C 96.8333,176.5 104.167,176.5 111.5,176.5C 111.5,165.167 111.5,153.833 111.5,142.5 Z"/></g>
</svg>
